<svg id="レイヤー_1" data-name="レイヤー 1" xmlns="http://www.w3.org/2000/svg" viewBox="0 0 44 44"><defs><style>.cls-1{fill:#04c463;}</style></defs><path class="cls-1" d="M22.46,43.69a5.1,5.1,0,0,0,5.09-5.1H17.36A5.1,5.1,0,0,0,22.46,43.69ZM33.21,22v-4.8A10.74,10.74,0,0,0,22.47,6.41h0A10.73,10.73,0,0,0,11.71,17.15V22c0,4.49-4.85,9.2-4.85,9.2H38.05S33.21,26.44,33.21,22ZM39,32.86H6a2,2,0,0,0,0,4.06H39a2,2,0,0,0,0-4.06ZM20.65,5.39a1.49,1.49,0,0,1,0-.21,1.83,1.83,0,1,1,3.66,0c0,.07,0,.14,0,.21a11.9,11.9,0,0,1,2.23.54,4.65,4.65,0,0,0,.07-.75,4.12,4.12,0,1,0-8.23,0,3.74,3.74,0,0,0,.08.75A11.71,11.71,0,0,1,20.65,5.39Z"/></svg>