<svg xmlns="http://www.w3.org/2000/svg" viewBox="0 0 43.91 43.14"><defs><style>.cls-1{fill:#04c463;}</style></defs><g id="レイヤー_2" data-name="レイヤー 2"><g id="レイヤー_1-2" data-name="レイヤー 1"><g id="SPEECH_BUBBLE" data-name="SPEECH BUBBLE"><path id="speech_bubble-2" data-name="speech bubble" class="cls-1" d="M38.89,0H5A5,5,0,0,0,0,5v22.2a5,5,0,0,0,5,5H20.65l12,10.9V32.24h6.2a5,5,0,0,0,5-5V5A5,5,0,0,0,38.89,0ZM41.1,27.22a2.21,2.21,0,0,1-2.21,2.21h-9v7.39l-8.17-7.39H5a2.21,2.21,0,0,1-2.21-2.21V5A2.21,2.21,0,0,1,5,2.81H38.89A2.21,2.21,0,0,1,41.1,5Z"/><g id="text"><path class="cls-1" d="M9.05,11H34.86a1.41,1.41,0,0,0,0-2.81H9.05a1.41,1.41,0,0,0,0,2.81Z"/><path class="cls-1" d="M34.86,21.29H9.05a1.4,1.4,0,0,0,0,2.8H34.86a1.4,1.4,0,0,0,0-2.8Z"/><path class="cls-1" d="M9.05,17.53H23a1.41,1.41,0,0,0,0-2.81h-14a1.41,1.41,0,0,0,0,2.81Z"/></g></g></g></g></svg>