<svg xmlns="http://www.w3.org/2000/svg" viewBox="0 0 43.4 43.4"><defs><style>.cls-1{fill:#04c463;}</style></defs><g id="レイヤー_2" data-name="レイヤー 2"><g id="レイヤー_1-2" data-name="レイヤー 1"><path class="cls-1" d="M42.86.28A1.36,1.36,0,0,0,41.4.16L.72,21.86a1.35,1.35,0,0,0-.06,2.36l10.93,6.56c2-1.93,30-29.31,30.15-29.12S14.47,32.55,14.47,32.55v9.5a1.37,1.37,0,0,0,.83,1.25,1.6,1.6,0,0,0,.52.1,1.4,1.4,0,0,0,1-.39l5.73-5.68,9.79,5.88a1.47,1.47,0,0,0,.7.19,1.49,1.49,0,0,0,.54-.11,1.34,1.34,0,0,0,.78-.95l9-40.69A1.36,1.36,0,0,0,42.86.28Z"/></g></g></svg>