<svg xmlns="http://www.w3.org/2000/svg" viewBox="0 0 42.54 44"><defs><style>.cls-1{fill:#04c463;}</style></defs><g id="レイヤー_2" data-name="レイヤー 2"><g id="レイヤー_1-2" data-name="レイヤー 1"><g id="SPEECH_BUBBLE" data-name="SPEECH BUBBLE"><path id="speech_bubble-2" data-name="speech bubble" class="cls-1" d="M42.54,19.22C42.54,8.6,33,0,21.27,0S0,8.6,0,19.22,9.52,38.43,21.27,38.43c.39,0,.77,0,1.16,0l8.63,5.39A1.4,1.4,0,0,0,33.2,42.6V35.13A18.78,18.78,0,0,0,42.54,19.22ZM31.76,32.76l-1.33.81v6.56l-6.54-4.08-.73-.46-.87,0-1,0c-10.2,0-18.5-7.38-18.5-16.44s8.3-16.45,18.5-16.45,18.5,7.38,18.5,16.45A16,16,0,0,1,31.76,32.76Z"/></g><path class="cls-1" d="M26.67,29.28l-1.52-4.8H17.5L16,29.28H11.21L18.42,9h5.76l7.25,20.28Zm-2.61-8.4-1.43-4.42c-.06-.16-.15-.44-.27-.81L22,14.4c-.14-.46-.26-.92-.39-1.38s-.2-.85-.25-1.17c0,.2-.1.44-.16.72l-.23.87-.27.94-.26.88c-.08.28-.15.52-.22.73l-.14.47-1.41,4.42Z"/></g></g></svg>