<svg id="レイヤー_1" data-name="レイヤー 1" xmlns="http://www.w3.org/2000/svg" viewBox="0 0 44 44"><defs><style>.cls-1{fill:#04c463;}</style></defs><g id="SPEECH_BUBBLE" data-name="SPEECH BUBBLE"><path id="speech_bubble-2" data-name="speech bubble" class="cls-1" d="M39,0H5A5,5,0,0,0,0,5V27.27a5,5,0,0,0,5,5H20.69L32.75,43.23V32.3H39a5,5,0,0,0,5-5V5A5,5,0,0,0,39,0Zm2.22,27.27A2.23,2.23,0,0,1,39,29.49h-9v7.4l-8.19-7.4H5a2.23,2.23,0,0,1-2.22-2.22V5A2.23,2.23,0,0,1,5,2.81H39A2.23,2.23,0,0,1,41.19,5Z"/><g id="face"><g id="eyes"><path id="eye" class="cls-1" d="M18.47,11.37a2.23,2.23,0,1,1-2.23-2.23A2.23,2.23,0,0,1,18.47,11.37Z"/><path id="eye-2" data-name="eye" class="cls-1" d="M30.12,11.37a2.23,2.23,0,1,1-2.23-2.23A2.23,2.23,0,0,1,30.12,11.37Z"/></g><path id="mouth" class="cls-1" d="M28.86,19.39a20.25,20.25,0,0,1-6.71,1.13H22a20.35,20.35,0,0,1-6.72-1.13,20.34,20.34,0,0,1-6-3.24V18.8A20.07,20.07,0,0,0,22,23.17h.23A20.09,20.09,0,0,0,34.84,18.8V16.15A20.27,20.27,0,0,1,28.86,19.39Z"/></g></g></svg>