<svg xmlns="http://www.w3.org/2000/svg" viewBox="0 0 42.07 42.07"><defs><style>.cls-1{fill:#fff;}</style></defs><g id="レイヤー_2" data-name="レイヤー 2"><g id="レイヤー_1-2" data-name="レイヤー 1"><path class="cls-1" d="M35.78,6.16A21.3,21.3,0,0,0,20.78,0,20.52,20.52,0,0,0,6,6.17,21.09,21.09,0,0,0,27.36,41.1l-.08-.42L27,39.28a18.44,18.44,0,0,1-3.32.78,30.12,30.12,0,0,0,3-2.85l-.33-1.83A27.14,27.14,0,0,1,21.49,40V30.25a35.31,35.31,0,0,1,4,.31l-.26-1.47c-1.17-.14-2.43-.23-3.76-.26V21.75H31.72a20.24,20.24,0,0,1-.8,5.12l1.26.78a23,23,0,0,0,1-5.9h7.08a19.08,19.08,0,0,1-2.74,9.19l1.55,1A20.84,20.84,0,0,0,35.78,6.16ZM17.53,2.11a28.63,28.63,0,0,0-3.38,3.45,25.61,25.61,0,0,0-3.23,4.94A21.37,21.37,0,0,1,6.36,8.58,18.89,18.89,0,0,1,17.53,2.11Zm-12,7.61a22.09,22.09,0,0,0,4.83,2.1,23,23,0,0,0-1.89,8.51H1.84A19.18,19.18,0,0,1,5.48,9.72Zm0,22.62A19.22,19.22,0,0,1,1.84,21.75H8.42a22.61,22.61,0,0,0,1.92,8.49A22.52,22.52,0,0,0,5.51,32.34Zm.89,1.13A21.6,21.6,0,0,1,11,31.55a26.44,26.44,0,0,0,3.32,5A29.17,29.17,0,0,0,17.73,40,19.22,19.22,0,0,1,6.4,33.47ZM20.07,40a26.63,26.63,0,0,1-7.7-8.81,34.25,34.25,0,0,1,7.7-.93Zm0-11.16a35.39,35.39,0,0,0-8.34,1,21.4,21.4,0,0,1-1.89-8.11H20.07Zm0-8.49H9.84a21.78,21.78,0,0,1,1.85-8.12,35.69,35.69,0,0,0,8.38,1Zm0-8.5a33.93,33.93,0,0,1-7.74-.94,26.69,26.69,0,0,1,7.74-9ZM35.59,8.59a27.59,27.59,0,0,1-5,1.88,26.1,26.1,0,0,0-3.22-4.91A29,29,0,0,0,24,2.09,19.54,19.54,0,0,1,35.59,8.59ZM21.49,1.92a26.69,26.69,0,0,1,7.72,8.92,36.72,36.72,0,0,1-7.72,1Zm0,18.41V13.25a39.58,39.58,0,0,0,8.36-1.08,21.71,21.71,0,0,1,1.88,8.16Zm11.66,0a23.38,23.38,0,0,0-1.9-8.54A28.56,28.56,0,0,0,36.5,9.73a19,19,0,0,1,3.73,10.6Z"/><polygon class="cls-1" points="38.86 33.63 26.27 25.82 28.82 40.41 31.68 37 34.96 41.85 37.91 39.87 34.63 35.01 38.86 33.63"/></g></g></svg>