<svg id="レイヤー_1" data-name="レイヤー 1" xmlns="http://www.w3.org/2000/svg" viewBox="0 0 104 20"><defs><style>.cls-1{fill:#ededed;}</style></defs><polygon class="cls-1" points="10 0 13.09 6.58 20 7.64 15 12.76 16.18 20 10 16.58 3.82 20 5 12.76 0 7.64 6.91 6.58 10 0"/><polygon class="cls-1" points="31 0 34.09 6.58 41 7.64 36 12.76 37.18 20 31 16.58 24.82 20 26 12.76 21 7.64 27.91 6.58 31 0"/><polygon class="cls-1" points="52 0 55.09 6.58 62 7.64 57 12.76 58.18 20 52 16.58 45.82 20 47 12.76 42 7.64 48.91 6.58 52 0"/><polygon class="cls-1" points="73 0 76.09 6.58 83 7.64 78 12.76 79.18 20 73 16.58 66.82 20 68 12.76 63 7.64 69.91 6.58 73 0"/><polygon class="cls-1" points="94 0 97.09 6.58 104 7.64 99 12.76 100.18 20 94 16.58 87.82 20 89 12.76 84 7.64 90.91 6.58 94 0"/></svg>